<svg width="19" height="19" viewBox="0 0 19 19" fill="none" xmlns="http://www.w3.org/2000/svg">
<path d="M8.63943 10.3591C8.48813 10.2081 8.30781 10.0892 8.10935 10.0098L1.83144 7.49228C1.75648 7.4622 1.69252 7.40991 1.64813 7.34243C1.60375 7.27496 1.58107 7.19552 1.58314 7.11478C1.58521 7.03404 1.61192 6.95586 1.6597 6.89074C1.70748 6.82563 1.77404 6.77668 1.85044 6.75048L16.8921 1.60465C16.9622 1.57931 17.0382 1.57448 17.111 1.59071C17.1838 1.60694 17.2504 1.64357 17.3032 1.69631C17.3559 1.74905 17.3925 1.81571 17.4088 1.88851C17.425 1.9613 17.4201 2.03721 17.3948 2.10736L12.249 17.149C12.2228 17.2254 12.1738 17.292 12.1087 17.3398C12.0436 17.3875 11.9654 17.4143 11.8847 17.4163C11.8039 17.4184 11.7245 17.3957 11.657 17.3513C11.5895 17.3069 11.5373 17.243 11.5072 17.168L8.98969 10.8885C8.90987 10.6902 8.79072 10.5101 8.63943 10.3591ZM8.63943 10.3591L17.3006 1.69965" stroke="black" stroke-width="2" stroke-linecap="round" stroke-linejoin="round"/>
</svg>
