<svg width="33" height="33" viewBox="0 0 33 33" fill="none" xmlns="http://www.w3.org/2000/svg">
<path d="M16.5022 31.5C19.8304 31.4995 23.0639 30.3921 25.6937 28.3523C28.3235 26.3124 30.2001 23.4558 31.0282 20.2323C31.8564 17.0088 31.5889 13.6014 30.2679 10.5466C28.947 7.49175 26.6476 4.963 23.7318 3.35842C20.8159 1.75385 17.4492 1.16458 14.1617 1.68339C10.8742 2.20221 7.85264 3.79963 5.57265 6.22419C3.29266 8.64874 1.88376 11.7627 1.56778 15.0759C1.25179 18.389 2.04666 21.7132 3.82724 24.525L1.50224 31.5L8.47723 29.175C10.8765 30.6978 13.6605 31.5043 16.5022 31.5Z" fill="white" stroke="white" stroke-width="2" stroke-linecap="round" stroke-linejoin="round"/>
</svg>
